<svg width="39" height="46" viewBox="0 0 39 46" fill="none" xmlns="http://www.w3.org/2000/svg">
<path d="M21 39.031C23.531 39.031 25.969 38.281 28.031 37.062L8.90602 17.937C7.68702 20 7.03102 22.437 7.03102 24.968C7.03102 32.749 13.219 39.031 21 39.031ZM3.00002 6.96899L38.531 42.5L36 45.031L30.937 39.968C28.031 41.843 24.656 42.968 20.999 42.968C11.061 42.968 2.99902 34.905 2.99902 24.968C2.99902 21.312 4.12402 17.843 5.99902 15.03L0.468018 9.49899L3.00002 6.96899ZM19.031 17.844V15.031H22.969V21.875L19.031 17.844ZM27 0.968994V4.99999H15V0.968994H27ZM35.063 8.09399L37.876 10.907L35.063 13.813C37.501 16.907 39.001 20.751 39.001 24.969C39.001 28.625 37.876 32.094 36.001 34.907L33.095 32.001C34.314 29.938 34.97 27.501 34.97 24.97C34.97 17.189 28.782 11.001 21.001 11.001C18.47 11.001 16.126 11.657 14.063 12.876L11.063 9.96999C13.876 8.09499 17.344 6.96999 21.001 6.96999C25.22 6.96999 29.157 8.46999 32.251 10.908L35.063 8.09399Z" fill="#333333"/>
</svg>
